C:\Users\r0593348\3dpredictsim\Results\Batchsim_tmt_linear\Pog_s1_tmt_aCst_d00_k500_ig24_act_GRF.mot
nRows=22
nColumns=19

name C:\Users\r0593348\3dpredictsim\Results\Batchsim_tmt_linear\Pog_s1_tmt_aCst_d00_k500_ig24_act_GRF.mot
datacolumns 19
datarows 22
range 0.6955309140 0.9876538979
endheader
time 	ground_force_vx	ground_force_vy	ground_force_vz	ground_force_px	ground_force_py	ground_force_pz	1_ground_force_vx	1_ground_force_vy	1_ground_force_vz	1_ground_force_px	1_ground_force_py	1_ground_force_pz	ground_torque_x	ground_torque_y	ground_torque_z	1_ground_torque_x	1_ground_torque_y	1_ground_torque_z
        0.6955309140	       58.2092371245	      279.4941514243	       12.7486402513	        0.4560059110	        0.0000000000	        0.0279389338	      -43.0598732188	      137.2050959385	      -53.3424170314	        1.0930173584	        0.0000000000	       -0.0489690626	        0.0000000000	        0.0000000000	        0.0000000000	        0.0000000000	        0.0000000000	        0.0000000000	
        0.7094415323	       41.3365256852	      227.3791087017	       10.0933969899	        0.4633500475	        0.0000000000	        0.0246750472	      -60.0095573653	      443.8803375204	        2.7192672046	        1.0947836353	        0.0000000000	       -0.0471271092	        0.0000000000	        0.0000000000	        0.0000000000	        0.0000000000	        0.0000000000	        0.0000000000	
        0.7233521506	       42.0225777365	      184.5980330769	        6.8112542009	        0.4637686064	        0.0000000000	        0.0245751204	      -98.5017315210	      669.1245429520	       16.0695857120	        1.0970013566	        0.0000000000	       -0.0471192372	        0.0000000000	        0.0000000000	        0.0000000000	        0.0000000000	        0.0000000000	        0.0000000000	
        0.7372627689	       30.9153520220	      124.3775841491	       13.5692467720	        0.4639692105	        0.0000000000	        0.0252894677	     -156.2802148325	      836.2697364821	       18.3625632731	        1.1057270793	        0.0000000000	       -0.0491687796	        0.0000000000	        0.0000000000	        0.0000000000	        0.0000000000	        0.0000000000	        0.0000000000	
        0.7511733871	        9.9659427948	       45.1902746854	       10.7283198494	        0.4638369473	        0.0000000000	        0.0261094980	     -180.6955934508	      913.8488575825	       18.3562063432	        1.1145074985	        0.0000000000	       -0.0512176051	        0.0000000000	        0.0000000000	        0.0000000000	        0.0000000000	        0.0000000000	        0.0000000000	
        0.7650840054	        0.1875724416	       -0.1945968319	       -0.0374718747	        0.0000000000	        0.0000000000	        0.0000000000	     -173.3801320110	      896.8868491552	       14.9078707264	        1.1201253211	        0.0000000000	       -0.0523445219	        0.0000000000	        0.0000000000	        0.0000000000	        0.0000000000	        0.0000000000	        0.0000000000	
        0.7789946237	        0.3310151655	       -0.2536488527	       -0.0075997465	        0.0000000000	        0.0000000000	        0.0000000000	     -147.0975311855	      841.6598920227	       16.0953537380	        1.1241984741	        0.0000000000	       -0.0529173218	        0.0000000000	        0.0000000000	        0.0000000000	        0.0000000000	        0.0000000000	        0.0000000000	
        0.7929052420	      -11.4853716360	        7.4863471443	       -0.1206846571	        0.0000000000	        0.0000000000	        0.0000000000	     -125.8450505027	      777.5968333305	       16.6311695877	        1.1279763183	        0.0000000000	       -0.0532146735	        0.0000000000	        0.0000000000	        0.0000000000	        0.0000000000	        0.0000000000	        0.0000000000	
        0.8068158603	      -13.7850521637	        7.8969576601	       -0.4879587960	        0.0000000000	        0.0000000000	        0.0000000000	     -110.6966753030	      735.0115880471	       17.1588346636	        1.1320037419	        0.0000000000	       -0.0532271677	        0.0000000000	        0.0000000000	        0.0000000000	        0.0000000000	        0.0000000000	        0.0000000000	
        0.8207264785	      -14.7510301963	        7.6829193261	       -0.7816676826	        0.0000000000	        0.0000000000	        0.0000000000	      -98.2067010905	      705.5346503046	       17.1896037452	        1.1365531919	        0.0000000000	       -0.0530771144	        0.0000000000	        0.0000000000	        0.0000000000	        0.0000000000	        0.0000000000	        0.0000000000	
        0.8346370968	      -15.7563866729	        7.7502457330	       -0.9569369165	        0.0000000000	        0.0000000000	        0.0000000000	      -88.7193433936	      687.1474528533	       18.2499521668	        1.1422285061	        0.0000000000	       -0.0525899290	        0.0000000000	        0.0000000000	        0.0000000000	        0.0000000000	        0.0000000000	        0.0000000000	
        0.8485477151	      -15.0975542372	        7.2174150517	       -0.9188701070	        0.0000000000	        0.0000000000	        0.0000000000	      -78.7189593826	      669.5556090812	       19.4367974922	        1.1480488488	        0.0000000000	       -0.0521277458	        0.0000000000	        0.0000000000	        0.0000000000	        0.0000000000	        0.0000000000	        0.0000000000	
        0.8624583334	      -12.8951408146	        6.0173763164	       -0.8136028148	        0.0000000000	        0.0000000000	        0.0000000000	      -68.5585932261	      650.3070614336	       20.2650822208	        1.1535578251	        0.0000000000	       -0.0518200953	        0.0000000000	        0.0000000000	        0.0000000000	        0.0000000000	        0.0000000000	        0.0000000000	
        0.8763689517	       -9.7986477846	        4.4873405387	       -0.6339140390	        0.0000000000	        0.0000000000	        0.0000000000	      -58.9955511813	      632.2543800944	       20.3761503438	        1.1589557723	        0.0000000000	       -0.0516173469	        0.0000000000	        0.0000000000	        0.0000000000	        0.0000000000	        0.0000000000	        0.0000000000	
        0.8902795699	       -6.9790609502	        3.1517909434	       -0.4531706300	        0.0000000000	        0.0000000000	        0.0000000000	      -50.6551953960	      616.4969535896	       20.1604752498	        1.1644193031	        0.0000000000	       -0.0514476602	        0.0000000000	        0.0000000000	        0.0000000000	        0.0000000000	        0.0000000000	        0.0000000000	
        0.9041901882	       -4.9105993101	        2.1945249255	       -0.3134512742	        0.0000000000	        0.0000000000	        0.0000000000	      -44.1797638404	      604.4672718381	       19.6944979254	        1.1701610233	        0.0000000000	       -0.0512476551	        0.0000000000	        0.0000000000	        0.0000000000	        0.0000000000	        0.0000000000	        0.0000000000	
        0.9181008065	       -3.3520022024	        1.4837458789	       -0.2088030997	        0.0000000000	        0.0000000000	        0.0000000000	      -39.0729983302	      597.4682180845	       19.1430936490	        1.1766323473	        0.0000000000	       -0.0509330676	        0.0000000000	        0.0000000000	        0.0000000000	        0.0000000000	        0.0000000000	        0.0000000000	
        0.9320114248	       -2.2325990387	        0.9776961955	       -0.1344232673	        0.0000000000	        0.0000000000	        0.0000000000	      -34.4389042403	      593.4033461428	       18.2029411079	        1.1838399107	        0.0000000000	       -0.0504753617	        0.0000000000	        0.0000000000	        0.0000000000	        0.0000000000	        0.0000000000	        0.0000000000	
        0.9459220431	       -1.5526399508	        0.6710004482	       -0.0896108502	        0.0000000000	        0.0000000000	        0.0000000000	      -30.4581924966	      590.8259968614	       17.2986781603	        1.1915014839	        0.0000000000	       -0.0498874063	        0.0000000000	        0.0000000000	        0.0000000000	        0.0000000000	        0.0000000000	        0.0000000000	
        0.9598326613	       -1.1674723528	        0.4970896968	       -0.0645001717	        0.0000000000	        0.0000000000	        0.0000000000	      -27.0753866328	      589.2648641663	       16.9038337149	        1.1993590032	        0.0000000000	       -0.0491984923	        0.0000000000	        0.0000000000	        0.0000000000	        0.0000000000	        0.0000000000	        0.0000000000	
        0.9737432796	       -0.9562406300	        0.4008992862	       -0.0512111032	        0.0000000000	        0.0000000000	        0.0000000000	      -23.9643634668	      587.8223093052	       16.6600641705	        1.2071615963	        0.0000000000	       -0.0484623766	        0.0000000000	        0.0000000000	        0.0000000000	        0.0000000000	        0.0000000000	        0.0000000000	
        0.9876538979	       -0.8440479676	        0.3484720461	       -0.0443989069	        0.0000000000	        0.0000000000	        0.0000000000	      -20.6982632372	      585.0293684336	       17.0523533842	        1.2147611548	        0.0000000000	       -0.0477132918	        0.0000000000	        0.0000000000	        0.0000000000	        0.0000000000	        0.0000000000	        0.0000000000	
